<?xml version="1.0" encoding="UTF-8"?>
<!DOCTYPE svg PUBLIC "-//W3C//DTD SVG 1.1//EN" "http://www.w3.org/Graphics/SVG/1.1/DTD/svg11.dtd">
<!-- Creator: CorelDRAW X8 -->
<svg xmlns="http://www.w3.org/2000/svg" xml:space="preserve" width="320px" height="320px" version="1.1" style="shape-rendering:geometricPrecision; text-rendering:geometricPrecision; image-rendering:optimizeQuality; fill-rule:evenodd; clip-rule:evenodd"
viewBox="0 0 320 320"
 xmlns:xlink="http://www.w3.org/1999/xlink">
 <defs>
  <style type="text/css">
   <![CDATA[
    .str1 {stroke:#2D8ADC;stroke-width:7.99965}
    .str0 {stroke:#F2F2F2;stroke-width:7.99965}
    .str3 {stroke:#2D8ADC;stroke-width:1.99962}
    .str2 {stroke:#2D8ADC;stroke-width:2.36222}
    .fil0 {fill:none}
    .fil4 {fill:#2D8ADC}
    .fil2 {fill:#E6E6E6}
    .fil1 {fill:#F2F2F2}
    .fil5 {fill:#2D8ADC;fill-rule:nonzero}
    .fil3 {fill:#2D8ADC;fill-opacity:0.090196}
   ]]>
  </style>
 </defs>
 <g id="Capa_x0020_1">
  <metadata id="CorelCorpID_0Corel-Layer"/>
  <rect class="fil0" x="10" y="10" width="300" height="300"/>
  <path class="fil0 str0" d="M69 291c4,-2 46,-27 46,-27l-1 -46"/>
  <path class="fil1" d="M134 226l-17 -5 -10 -24 -5 -13 -8 -47c1,-22 3,-42 4,-64 8,-24 28,-39 55,-51l0 0c-19,-5 -47,9 -68,49l-2 66 11 50 5 18 10 14 28 11 -3 -4z"/>
  <polygon class="fil2" points="119,223 159,253 200,224 193,224 173,234 161,234 148,234 128,225 "/>
  <path class="fil0 str1" d="M71 296c4,-3 48,-29 48,-29l0 -45"/>
  <path class="fil0 str1" d="M249 296c-4,-3 -48,-29 -48,-29l0 -46"/>
  <path class="fil0 str1" d="M161 23c31,0 57,24 63,56l1 5 3 55 -1 5 0 4 -12 44 -3 7 -6 15 -2 5 -5 4 -6 1 -21 10 -24 0 -20 -10 -7 -1 -4 -3 -2 -5 -9 -23 -10 -43 0 -5 -1 -6 3 -54 1 -5c6,-32 32,-56 62,-56z"/>
  <polyline class="fil0 str2" points="66,311 10,311 10,260 "/>
  <polyline class="fil0 str2" points="254,311 310,311 310,260 "/>
  <polyline class="fil0 str3" points="150,196 150,196 173,196 173,196 "/>
  <polyline class="fil0 str2" points="66,11 10,11 10,61 "/>
  <polyline class="fil0 str2" points="254,11 310,11 310,61 "/>
  <path class="fil0 str3" d="M114 121c0,0 6,-6 10,-7 3,-1 7,-1 10,-1 4,1 9,6 11,7l-6 4 -7 1 -12 -1 -6 -3z"/>
  <path class="fil0 str3" d="M208 121c0,0 -5,-6 -9,-7 -4,-1 -8,-1 -10,-1 -5,1 -10,6 -12,7l7 4 7 1 11 -1 6 -3z"/>
  <line class="fil0 str3" x1="161" y1="141" x2="161" y2= "160" />
  <polyline class="fil0 str3" points="158,163 165,163 168,159 168,153 "/>
  <polyline class="fil0 str3" points="165,163 158,163 155,159 155,153 "/>
  <g id="_3248142685328">
   <path class="fil3" d="M174 95c14,0 26,12 26,26 0,14 -12,26 -26,26 -14,0 -25,-12 -25,-26 0,-14 11,-26 25,-26z"/>
   <circle class="fil4" cx="175" cy="121" r="8"/>
  </g>
  <polygon class="fil5" points="271,61 254,61 254,28 261,28 261,55 271,55 "/>
  <path class="fil5" d="M42 61l0 -34 11 0c2,0 3,0 5,1 2,1 3,2 4,3 1,1 2,2 3,4 1,2 1,3 1,5 0,3 0,5 -2,7 -1,1 -2,3 -4,4l6 10 -7 0 -5 -8c0,0 0,0 0,0 -1,0 -1,0 -1,0l-4 0 0 8 -7 0zm7 -14l4 0c1,0 2,0 3,-1 0,0 1,-1 2,-1 0,-1 1,-1 1,-2 0,-1 1,-2 1,-3 0,-1 -1,-2 -1,-2 0,-1 -1,-2 -1,-3 -1,0 -2,-1 -2,-1 -1,0 -2,-1 -3,-1l-4 0 0 14z"/>
 </g>
</svg>
