<?xml version="1.0" encoding="UTF-8"?>
<!DOCTYPE svg PUBLIC "-//W3C//DTD SVG 1.1//EN" "http://www.w3.org/Graphics/SVG/1.1/DTD/svg11.dtd">
<!-- Creator: CorelDRAW X8 -->
<svg xmlns="http://www.w3.org/2000/svg" xml:space="preserve" width="320px" height="320px" version="1.1" style="shape-rendering:geometricPrecision; text-rendering:geometricPrecision; image-rendering:optimizeQuality; fill-rule:evenodd; clip-rule:evenodd"
viewBox="0 0 320 320"
 xmlns:xlink="http://www.w3.org/1999/xlink">
 <defs>
  <style type="text/css">
   <![CDATA[
    .str1 {stroke:#2D8ADC;stroke-width:1.99962}
    .str0 {stroke:#2D8ADC;stroke-width:2.36222}
    .str2 {stroke:#E6E6E6;stroke-width:2.36222;stroke-dasharray:2.362216 2.362216}
    .fil0 {fill:none}
    .fil4 {fill:#2D8ADC}
    .fil1 {fill:#E6E6E6}
    .fil2 {fill:#2D8ADC;fill-rule:nonzero}
    .fil3 {fill:#2D8ADC;fill-opacity:0.090196}
   ]]>
  </style>
 </defs>
 <g id="Capa_x0020_1">
  <metadata id="CorelCorpID_0Corel-Layer"/>
  <rect class="fil0" x="10" y="10" width="300" height="300"/>
  <g id="_3248184012816">
   <polyline class="fil0 str0" points="66,310 10,310 10,259 "/>
   <polyline class="fil0 str0" points="254,310 310,310 310,259 "/>
   <polyline class="fil0 str0" points="66,10 10,10 10,61 "/>
   <polyline class="fil0 str0" points="254,10 310,10 310,61 "/>
  </g>
  <polyline class="fil0 str1" points="198,101 167,101 154,97 "/>
  <polyline class="fil0 str1" points="222,203 201,204 198,203 "/>
  <polygon class="fil1" points="82,209 137,283 142,283 147,251 "/>
  <path class="fil2" d="M143 283c0,-16 1,-32 1,-32l0 -6 23 14 45 -1 4 -9c0,-4 2,-24 4,-34 0,-1 0,-3 1,-4l0 -1 -1 -6 2 -6c-2,-15 1,-14 1,-29l3 0c4,0 4,-1 6,-3 1,-2 14,-5 18,-8l-29 -40 2 -74 7 0 -2 72 32 43 -3 2c-5,4 -18,7 -20,9 -2,3 -3,5 -7,6l-2 16 1 6 -2 6 1 5 0 1c0,1 0,3 -1,4 0,1 -1,2 -1,2 -1,12 -3,34 -3,34l0 1 -7 14 -51 1 -15 -9c0,6 0,16 0,26l-7 0z"/>
  <g id="_3248184008464">
   <path class="fil3" d="M263 134c14,0 26,11 26,25 0,15 -12,26 -26,26 -14,0 -25,-11 -25,-26 0,-14 11,-25 25,-25z"/>
   <circle class="fil4" cx="264" cy="159" r="8"/>
  </g>
  <path class="fil0 str2" d="M224 47c-85,-67 -217,28 -141,163"/>
  <polygon class="fil2" points="271,61 254,61 254,27 261,27 261,54 271,54 "/>
  <path class="fil2" d="M42 60l0 -34 11 0c2,0 4,1 5,1 2,1 3,2 4,3 1,1 2,3 3,4 1,2 1,4 1,6 0,2 0,4 -1,6 -2,2 -3,4 -5,5l6 9 -7 0 -5 -7c0,0 0,0 0,0 -1,0 -1,0 -1,0l-4 0 0 7 -7 0zm7 -14l4 0c1,0 2,0 3,0 0,-1 1,-1 2,-2 0,0 1,-1 1,-2 0,-1 1,-1 1,-2 0,-1 -1,-2 -1,-3 0,-1 -1,-2 -1,-2 -1,-1 -2,-1 -2,-2 -1,0 -2,0 -3,0l-4 0 0 13z"/>
 </g>
</svg>
