<?xml version="1.0" encoding="UTF-8"?>
<!DOCTYPE svg PUBLIC "-//W3C//DTD SVG 1.1//EN" "http://www.w3.org/Graphics/SVG/1.1/DTD/svg11.dtd">
<!-- Creator: CorelDRAW X8 -->
<svg xmlns="http://www.w3.org/2000/svg" xml:space="preserve" width="320px" height="320px" version="1.1" style="shape-rendering:geometricPrecision; text-rendering:geometricPrecision; image-rendering:optimizeQuality; fill-rule:evenodd; clip-rule:evenodd"
viewBox="0 0 320 320"
 xmlns:xlink="http://www.w3.org/1999/xlink">
 <defs>
  <style type="text/css">
   <![CDATA[
    .str2 {stroke:#2D8ADC;stroke-width:0.999218}
    .str0 {stroke:#2D8ADC;stroke-width:2.36222}
    .str1 {stroke:#2D8ADC;stroke-width:0.900004}
    .str3 {stroke:#E6E6E6;stroke-width:2.36222;stroke-dasharray:2.362216 2.362216}
    .fil0 {fill:none}
    .fil4 {fill:#2D8ADC}
    .fil1 {fill:#E6E6E6}
    .fil2 {fill:#2D8ADC;fill-rule:nonzero}
    .fil3 {fill:#2D8ADC;fill-opacity:0.090196}
   ]]>
  </style>
 </defs>
 <g id="Capa_x0020_1">
  <metadata id="CorelCorpID_0Corel-Layer"/>
  <rect class="fil0" x="10" y="10" width="300" height="300"/>
  <g id="_3248142696016">
   <g>
    <polyline class="fil0 str0" points="66,311 10,311 10,260 "/>
    <polyline class="fil0 str0" points="254,311 310,311 310,260 "/>
    <polyline class="fil0 str0" points="66,11 10,11 10,61 "/>
    <polyline class="fil0 str0" points="254,11 310,11 310,61 "/>
   </g>
   <polyline class="fil0 str1" points="198,102 167,102 154,98 "/>
   <polyline class="fil0 str2" points="222,204 201,204 198,203 "/>
   <polygon class="fil1" points="82,210 137,283 142,283 147,252 "/>
   <path class="fil2" d="M143 283c0,-16 0,-31 0,-32l1 -5 23 13 45 -1 4 -8c0,-4 2,-24 3,-34 1,-2 1,-3 2,-4l0 -2 -1 -6 2 -6c-2,-14 1,-14 1,-28l3 0c3,0 4,-2 6,-4 1,-2 14,-4 18,-8l-29 -40 2 -73 7 0 -2 71 32 44 -3 2c-5,3 -18,6 -20,8 -2,4 -3,6 -7,6l-2 16 1 7 -2 6 1 4 0 1c0,2 0,3 -1,4 0,1 -1,2 -1,3 -1,11 -3,34 -3,34l-1 0 -6 14 -51 1 -15 -9c0,6 0,16 0,26l-7 0z"/>
   <g>
    <path class="fil3" d="M233 152c14,0 25,11 25,25 0,15 -11,26 -25,26 -14,0 -26,-11 -26,-26 0,-14 12,-25 26,-25z"/>
    <circle class="fil4" cx="234" cy="177" r="8"/>
   </g>
   <path class="fil0 str3" d="M224 48c-85,-68 -217,28 -142,162"/>
   <polygon class="fil2" points="271,61 254,61 254,28 261,28 261,55 271,55 "/>
   <path class="fil2" d="M42 61l0 -34 11 0c2,0 3,0 5,1 2,1 3,2 4,3 1,1 2,2 3,4 1,2 1,3 1,5 0,3 0,5 -2,7 -1,1 -2,3 -4,4l6 10 -7 0 -5 -8c0,0 0,0 0,0 -1,0 -1,0 -1,0l-4 0 0 8 -7 0zm7 -14l4 0c1,0 2,0 3,-1 0,0 1,-1 2,-1 0,-1 1,-1 1,-2 0,-1 1,-2 1,-3 0,-1 -1,-2 -1,-2 0,-1 -1,-2 -1,-3 -1,0 -2,-1 -2,-1 -1,0 -2,-1 -3,-1l-4 0 0 14z"/>
  </g>
 </g>
</svg>
